<svg id="logo-sm" xmlns="http://www.w3.org/2000/svg" width="29.289" height="25.548" viewBox="0 0 29.289 25.548">
  <g id="Group_12048" data-name="Group 12048" transform="translate(0 0)">
    <path id="Path_30112" data-name="Path 30112" d="M92.828,91.055a5.854,5.854,0,0,1,.282-1.234,49,49,0,0,0,2.15-6.025l.01-.039q.047-.2.089-.4a11.369,11.369,0,0,0-.224-6.309c-3.721-10.557-16.7-6.389-18.17-5.877A23.357,23.357,0,0,1,71.4,72.508h-.043l.827,2.776,4.186-1.457a14.459,14.459,0,0,0,2.725-1.475c1.909-1.2,4.076-2.558,6.088-2.035,4.515,1.163,6.951,4.254,7.454,9.439.167,1.76-.784,4.051-1.7,6.265a24.671,24.671,0,0,0-1.562,4.524,11.386,11.386,0,0,0,.291,4.909l.01.027,3.308-.944V94.51a10.7,10.7,0,0,1-.152-3.455" transform="translate(-71.128 -69.934)" fill="#ff0001"/>
    <path id="Path_30113" data-name="Path 30113" d="M100.071,88.526c1.035-2.91,2.6-7.3.942-12a8.9,8.9,0,0,0-5.388-5.667,13.454,13.454,0,0,0-5.688-.71,6.788,6.788,0,0,0-3.259.527,17.926,17.926,0,0,0-4.554,1.738c-3.5,2.044-8.157,4.219-8.2,4.24l-.028.01.512,2.57.038-.023a65.347,65.347,0,0,0,7.611-5.291l.158-.136A16.52,16.52,0,0,1,86.7,70.733a19.808,19.808,0,0,1,3.227-.524c.206.025.415.055.622.1a9.914,9.914,0,0,1,8.258,9.438,19.531,19.531,0,0,1-1.59,7.616,19.169,19.169,0,0,0-1.059,3.387,11.086,11.086,0,0,0-.2,1.952,3.617,3.617,0,0,0,.245,1.585l.014.02,3.315-.949-.02-.035a4.544,4.544,0,0,1-.04-2.964c.119-.48.336-1.112.594-1.831" transform="translate(-72.45 -70.021)" fill="#ff0001"/>
    <path id="Path_30114" data-name="Path 30114" d="M90.339,100.051l-4.159-.01c.1-.118.232-.276.385-.467l3.382.007a2.627,2.627,0,0,0,.392.47" transform="translate(-78.835 -85.342)" fill="#018837"/>
    <path id="Path_30115" data-name="Path 30115" d="M101.981,100.073l4.179.009c.021-.156.048-.312.055-.47l-3.836-.008a2.408,2.408,0,0,1-.4.469" transform="translate(-87.049 -85.357)" fill="#018837"/>
    <path id="Path_30116" data-name="Path 30116" d="M93.581,105.166a2.878,2.878,0,0,1-.314.472l-3.276-.007c-.179-.148-.355-.307-.525-.473Z" transform="translate(-80.544 -88.244)" fill="#018837"/>
    <path id="Path_30117" data-name="Path 30117" d="M104.928,105.19a4.782,4.782,0,0,1-.276.472l-3.687-.008c.143-.17.265-.33.369-.471Z" transform="translate(-86.52 -88.257)" fill="#018837"/>
    <path id="Path_30118" data-name="Path 30118" d="M94.042,107.034a2.078,2.078,0,0,1-1,.384,1.974,1.974,0,0,1-1.229-.39Z" transform="translate(-81.762 -89.216)" fill="#018837"/>
    <path id="Path_30119" data-name="Path 30119" d="M103.469,107.055a5.192,5.192,0,0,1-.376.47l-3.856-.007c.166-.158.32-.317.461-.472Z" transform="translate(-85.623 -89.226)" fill="#018837"/>
    <path id="Path_30120" data-name="Path 30120" d="M97.891,101.452c-.031.159-.074.315-.117.472l-11.2-.023c-.149-.183-.275-.347-.372-.474l4.75.01a2.453,2.453,0,0,0,1.108.277,2.42,2.42,0,0,0,1.111-.273Z" transform="translate(-78.848 -86.305)" fill="#018837"/>
    <path id="Path_30121" data-name="Path 30121" d="M98.416,103.316a4.132,4.132,0,0,1-.182.472l-3.5-.007c.082-.124.124-.2.126-.2l.092-.167-1.99,0-.014.086s-.028.114-.09.281l-4.726-.011c-.149-.159-.291-.318-.424-.471Z" transform="translate(-79.632 -87.276)" fill="#018837"/>
    <path id="Path_30122" data-name="Path 30122" d="M101.523,108.9a6.616,6.616,0,0,1-.542.476l-4-.008a5.446,5.446,0,0,0,.6-.476h.02Z" transform="translate(-84.449 -90.186)" fill="#018837"/>
    <path id="Path_30123" data-name="Path 30123" d="M95.546,112.723a6.839,6.839,0,0,0,1.158-.1l-2.31,0a6.855,6.855,0,0,0,1.151.1" transform="translate(-83.105 -92.123)" fill="#018837"/>
    <path id="Path_30124" data-name="Path 30124" d="M98.469,110.761a6.6,6.6,0,0,1-.9.473l-4.261-.01a6.246,6.246,0,0,0,1.087-.472Z" transform="translate(-82.542 -91.152)" fill="#018837"/>
    <path id="Path_30125" data-name="Path 30125" d="M96.35,86.566a7.537,7.537,0,0,1-.642.469l-2.118,0c.083-.151.176-.308.276-.469Z" transform="translate(-82.687 -78.578)" fill="#018837"/>
    <path id="Path_30126" data-name="Path 30126" d="M104.691,87.055l-1.194,0a4.087,4.087,0,0,0,.393-.469h.206a6.141,6.141,0,0,1,.6.472" transform="translate(-87.837 -78.589)" fill="#018837"/>
    <path id="Path_30127" data-name="Path 30127" d="M95.588,88.891l-2.828-.006c.007-.023.016-.046.023-.069a3.753,3.753,0,0,1,.164-.407l1.984,0a1.49,1.49,0,0,0,.657.477" transform="translate(-82.255 -79.538)" fill="#018837"/>
    <path id="Path_30128" data-name="Path 30128" d="M104.077,88.91l-3.391-.007a2.863,2.863,0,0,0,.882-.473l2.1,0c.141.153.282.311.407.476" transform="translate(-86.375 -79.549)" fill="#018837"/>
    <path id="Path_30129" data-name="Path 30129" d="M103.272,98.214l3.64.008,0-.122c0-.12-.012-.234-.016-.35l-3.483-.007a3.465,3.465,0,0,1-.146.472" transform="translate(-87.72 -84.389)" fill="#018837"/>
    <path id="Path_30130" data-name="Path 30130" d="M90.5,98.189l-2.839-.006c.109-.145.226-.3.345-.472l2.347,0a2.5,2.5,0,0,0,.146.473" transform="translate(-79.604 -84.374)" fill="#018837"/>
    <path id="Path_30131" data-name="Path 30131" d="M100.185,90.766l-4.844-.01-.227-.024-.217.024-2.841-.007c.066-.155.13-.313.19-.472l7.653.016c.1.153.2.311.286.473" transform="translate(-81.889 -80.509)" fill="#018837"/>
    <path id="Path_30132" data-name="Path 30132" d="M97.784,84.72a3.038,3.038,0,0,1-.376.459l-2.669-.006c.109-.159.224-.318.342-.473l2.66.006a.368.368,0,0,1,.043.014" transform="translate(-83.284 -77.61)" fill="#018837"/>
    <path id="Path_30133" data-name="Path 30133" d="M90.986,96.221l.01.109-2.017,0q.155-.226.309-.473l1.733,0a2.624,2.624,0,0,0-.035.366" transform="translate(-80.29 -83.407)" fill="#018837"/>
    <path id="Path_30134" data-name="Path 30134" d="M103.653,96.246l-.01.108,3.412.007c-.022-.159-.041-.315-.072-.474l-3.363-.007a2.361,2.361,0,0,1,.033.366" transform="translate(-87.901 -83.421)" fill="#018837"/>
    <path id="Path_30135" data-name="Path 30135" d="M91.929,94a2.65,2.65,0,0,0-.2.473l-1.573,0q.137-.23.27-.473Z" transform="translate(-80.902 -82.442)" fill="#018837"/>
    <path id="Path_30136" data-name="Path 30136" d="M103.208,94.494l3.371.007c-.038-.161-.079-.318-.126-.474l-3.44-.007a2.611,2.611,0,0,1,.2.474" transform="translate(-87.585 -82.454)" fill="#018837"/>
    <path id="Path_30137" data-name="Path 30137" d="M101.878,92.632l3.578.008c-.062-.161-.136-.32-.207-.47l-3.869-.009a2.561,2.561,0,0,1,.5.471" transform="translate(-86.736 -81.488)" fill="#018837"/>
    <path id="Path_30138" data-name="Path 30138" d="M93.251,92.144a2.664,2.664,0,0,0-.5.47l-1.563,0c.079-.154.156-.311.231-.471Z" transform="translate(-81.437 -81.477)" fill="#018837"/>
    <path id="Path_30139" data-name="Path 30139" d="M87.356,80.623a3.183,3.183,0,0,1-.693,1.608,3.875,3.875,0,0,1-.433.47c-.087.08-.174.155-.26.22s-.189.139-.28.2h0a1.716,1.716,0,0,1-1.2.315,1.249,1.249,0,0,1-.63-.318c-.029-.026-.053-.052-.074-.074.114-.069.3-.189.52-.344a7.083,7.083,0,0,0,.586-.469,4.449,4.449,0,0,0,.419-.421,3.022,3.022,0,0,0,.291-.386,1.751,1.751,0,0,0,.272-.71l.007-.143a1.274,1.274,0,0,0-.469-.971.814.814,0,0,0-.82-.175,5.042,5.042,0,0,0-2.18,1.905c-.117.156-.228.315-.332.473-.095.141-.185.282-.267.42-.1.162-.187.32-.267.471s-.146.287-.2.418-.1.235-.13.336c-.015.047-.029.092-.046.138-.048.142-.1.283-.152.422-.062.159-.127.317-.2.472s-.125.285-.193.423c-.075.159-.154.316-.234.47s-.15.283-.228.42q-.135.243-.275.473c-.087.143-.173.283-.26.418-.105.164-.211.322-.314.474s-.2.287-.293.418c-.122.17-.241.328-.351.473s-.232.3-.332.423c-.175.214-.311.373-.394.467-.058.065-.09.1-.093.1l-.064.066.052.078c.012.018.056.08.127.176.084.114.207.279.362.473.1.129.217.271.345.422s.265.31.412.472c.128.141.263.283.4.424.162.162.33.321.5.472h0a6.443,6.443,0,0,0,.533.425,3.874,3.874,0,0,0,.832.473h.017a1.664,1.664,0,0,0,.818.138,2.29,2.29,0,0,0,.552-.135h.012a2.281,2.281,0,0,0,.755-.471,2.675,2.675,0,0,0,.373-.424,3.333,3.333,0,0,0,.282-.471,3.6,3.6,0,0,0,.179-.422c.022-.06.038-.11.049-.148l1.435,0c-.027.042-.06.091-.1.148-.079.117-.18.259-.3.421-.11.145-.237.3-.38.472-.117.136-.245.279-.383.424s-.309.315-.482.471c-.154.141-.317.28-.492.417a7.811,7.811,0,0,1-.652.476h-.02a6.905,6.905,0,0,1-.766.415h0a5.561,5.561,0,0,1-1.525.466l-.085.013c-2.146.287-4.632-2.946-4.658-2.981l-.062-.082-.083.057a21.085,21.085,0,0,1-2.525,1.543,2.589,2.589,0,0,1-2.165.088.463.463,0,0,1-.23-.307,1.655,1.655,0,0,1,.409-1.365c1.095-1.361,4.039-1.622,4.074-1.622l.064-.008.021-.069c.012-.025.549-1.515,1.4-3.312.075-.157.151-.314.23-.474.069-.14.14-.279.211-.42.079-.157.16-.313.245-.471q.112-.211.229-.423c.087-.158.176-.315.267-.472.082-.141.165-.282.249-.421.1-.16.2-.32.3-.474a14.01,14.01,0,0,1,1.014-1.393c1.761-2.094,4.043-3.5,5.687-3.5a1.813,1.813,0,0,1,1.459.6,2.333,2.333,0,0,1,.581,1.805" transform="translate(-70.884 -74.238)" fill="#ff0001"/>
    <path id="Path_30140" data-name="Path 30140" d="M94.6,93.88a1.994,1.994,0,0,1,1.928-1.545,1.913,1.913,0,0,1,.921.236c.157.081.034.326-.12.24a1.683,1.683,0,0,0-.8-.206,1.728,1.728,0,0,0-1.669,1.343.134.134,0,1,1-.259-.068m-.084.786.019-.289a.132.132,0,1,1,.262.037l-.016.252a.132.132,0,1,1-.265,0" transform="translate(-83.179 -81.579)" fill="#ff0001"/>
    <path id="Path_30141" data-name="Path 30141" d="M99.726,97a2.009,2.009,0,0,1-1.868,1.32,1.854,1.854,0,0,1-.533-.069.138.138,0,0,1,.074-.266,1.606,1.606,0,0,0,.459.063,1.728,1.728,0,0,0,1.616-1.146.136.136,0,0,1,.253.1m.124-.709a1.961,1.961,0,0,1-.04.391.134.134,0,1,1-.262-.055,2.315,2.315,0,0,0,.033-.337.135.135,0,1,1,.27,0" transform="translate(-84.579 -83.566)" fill="#ff0001"/>
  </g>
</svg>
