<svg xmlns="http://www.w3.org/2000/svg" width="177.435" height="63" viewBox="0 0 177.435 63">
  <g id="logo-lg" transform="translate(13819.435 9615.5)">
    <g id="Group_237410" data-name="Group 237410" transform="translate(-13893.435 -9978.906)">
      <g id="Group_12048" data-name="Group 12048" transform="translate(74 370.686)">
        <path id="Path_30112" data-name="Path 30112" d="M110.9,108.834a10.782,10.782,0,0,1,.52-2.273c.959-2.666,2.886-6.6,3.96-11.1.006-.025.011-.049.018-.073q.086-.365.164-.735a20.938,20.938,0,0,0-.413-11.619C108.3,63.595,84.39,71.272,81.69,72.215a43.016,43.016,0,0,1-10.256,2.46h-.08l1.524,5.113,7.71-2.684a26.631,26.631,0,0,0,5.019-2.716c3.515-2.207,7.507-4.711,11.213-3.747,8.316,2.141,12.8,7.835,13.728,17.384.308,3.242-1.443,7.46-3.133,11.539a45.439,45.439,0,0,0-2.877,8.332,20.97,20.97,0,0,0,.535,9.041l.019.05,6.093-1.74v-.05a19.7,19.7,0,0,1-.28-6.363" transform="translate(-70.938 -69.934)" fill="#ff0001"/>
        <path id="Path_30113" data-name="Path 30113" d="M122.1,104.034c1.906-5.359,4.794-13.451,1.735-22.108a16.4,16.4,0,0,0-9.923-10.436,24.779,24.779,0,0,0-10.476-1.308,12.5,12.5,0,0,0-6,.97,33.015,33.015,0,0,0-8.386,3.2c-6.453,3.764-15.024,7.771-15.1,7.808l-.052.018.944,4.734.071-.042c.1-.052,9.031-5.388,14.018-9.744l.29-.25a30.426,30.426,0,0,1,8.263-5.612,36.48,36.48,0,0,1,5.944-.965c.378.046.764.1,1.146.182A18.259,18.259,0,0,1,119.78,87.864a35.97,35.97,0,0,1-2.928,14.027,35.305,35.305,0,0,0-1.95,6.238,20.418,20.418,0,0,0-.363,3.595,6.662,6.662,0,0,0,.451,2.918l.026.037,6.1-1.748-.036-.065c-.012-.017-.939-1.818-.074-5.459.219-.883.619-2.047,1.093-3.373" transform="translate(-71.232 -69.953)" fill="#ff0001"/>
        <path id="Path_30114" data-name="Path 30114" d="M93.84,100.453l-7.66-.019c.184-.218.427-.509.708-.86l6.229.013a4.838,4.838,0,0,0,.723.866" transform="translate(-72.652 -73.362)" fill="#018837"/>
        <path id="Path_30115" data-name="Path 30115" d="M101.981,100.467l7.7.017c.039-.287.088-.574.1-.865l-7.064-.015a4.437,4.437,0,0,1-.733.863" transform="translate(-74.479 -73.365)" fill="#018837"/>
        <path id="Path_30116" data-name="Path 30116" d="M97.044,105.173a5.3,5.3,0,0,1-.577.868l-6.033-.012c-.329-.272-.654-.566-.967-.872Z" transform="translate(-73.032 -74.007)" fill="#018837"/>
        <path id="Path_30117" data-name="Path 30117" d="M108.264,105.2a8.812,8.812,0,0,1-.509.868l-6.79-.015c.263-.314.488-.608.68-.867Z" transform="translate(-74.362 -74.01)" fill="#018837"/>
        <path id="Path_30118" data-name="Path 30118" d="M95.921,107.039a3.827,3.827,0,0,1-1.847.708,3.635,3.635,0,0,1-2.264-.718Z" transform="translate(-73.303 -74.223)" fill="#018837"/>
        <path id="Path_30119" data-name="Path 30119" d="M107.031,107.062a9.563,9.563,0,0,1-.692.866l-7.1-.012c.306-.291.589-.584.848-.869Z" transform="translate(-74.162 -74.226)" fill="#018837"/>
        <path id="Path_30120" data-name="Path 30120" d="M107.726,101.474c-.057.293-.137.581-.215.868L86.891,102.3c-.275-.337-.506-.639-.685-.874l8.748.019a4.517,4.517,0,0,0,2.04.51,4.457,4.457,0,0,0,2.046-.5Z" transform="translate(-72.655 -73.576)" fill="#018837"/>
        <path id="Path_30121" data-name="Path 30121" d="M107.425,103.334a7.6,7.6,0,0,1-.334.868l-6.439-.012c.15-.228.228-.363.233-.371l.169-.308-3.665-.005-.026.158c0,.007-.052.21-.165.518l-8.7-.02c-.275-.294-.537-.586-.781-.867Z" transform="translate(-72.83 -73.792)" fill="#018837"/>
        <path id="Path_30122" data-name="Path 30122" d="M105.347,108.909a12.185,12.185,0,0,1-1,.876l-7.369-.015a10.025,10.025,0,0,0,1.105-.877h.036Z" transform="translate(-73.901 -74.439)" fill="#018837"/>
        <path id="Path_30123" data-name="Path 30123" d="M96.516,112.811a12.592,12.592,0,0,0,2.133-.184l-4.254-.008a12.625,12.625,0,0,0,2.121.192" transform="translate(-73.602 -74.87)" fill="#018837"/>
        <path id="Path_30124" data-name="Path 30124" d="M102.809,110.768a12.151,12.151,0,0,1-1.649.871l-7.848-.018a11.5,11.5,0,0,0,2-.869Z" transform="translate(-73.477 -74.654)" fill="#018837"/>
        <path id="Path_30125" data-name="Path 30125" d="M98.673,86.57a13.884,13.884,0,0,1-1.183.864l-3.9-.008c.153-.278.324-.568.509-.864Z" transform="translate(-73.509 -71.857)" fill="#018837"/>
        <path id="Path_30126" data-name="Path 30126" d="M105.7,87.451l-2.2-.005a7.523,7.523,0,0,0,.723-.863h.378a11.314,11.314,0,0,1,1.1.868" transform="translate(-74.655 -71.859)" fill="#018837"/>
        <path id="Path_30127" data-name="Path 30127" d="M97.968,89.3l-5.208-.011c.013-.042.029-.085.042-.126a6.923,6.923,0,0,1,.3-.75l3.654.008a2.745,2.745,0,0,0,1.211.879" transform="translate(-73.413 -72.07)" fill="#018837"/>
        <path id="Path_30128" data-name="Path 30128" d="M106.931,89.314l-6.245-.013a5.273,5.273,0,0,0,1.624-.871l3.872.008c.26.282.519.573.75.876" transform="translate(-74.33 -72.073)" fill="#018837"/>
        <path id="Path_30129" data-name="Path 30129" d="M103.272,98.611l6.7.014.009-.226c0-.22-.023-.432-.03-.645l-6.415-.013a6.386,6.386,0,0,1-.268.869" transform="translate(-74.629 -73.15)" fill="#018837"/>
        <path id="Path_30130" data-name="Path 30130" d="M92.888,98.591,87.66,98.58c.2-.266.416-.557.636-.868l4.323.008a4.607,4.607,0,0,0,.27.871" transform="translate(-72.823 -73.146)" fill="#018837"/>
        <path id="Path_30131" data-name="Path 30131" d="M107.028,91.177l-8.921-.019-.418-.043-.4.043-5.233-.012c.122-.285.239-.576.35-.869l14.095.029c.189.282.361.573.527.871" transform="translate(-73.332 -72.286)" fill="#018837"/>
        <path id="Path_30132" data-name="Path 30132" d="M100.347,84.736a5.6,5.6,0,0,1-.692.845l-4.915-.011c.2-.293.413-.585.631-.871l4.9.011a.674.674,0,0,1,.079.026" transform="translate(-73.642 -71.642)" fill="#018837"/>
        <path id="Path_30133" data-name="Path 30133" d="M92.676,96.532l.019.2-3.715-.008q.285-.417.569-.872l3.193.005a4.833,4.833,0,0,0-.065.675" transform="translate(-72.976 -72.931)" fill="#018837"/>
        <path id="Path_30134" data-name="Path 30134" d="M103.681,96.555l-.019.2,6.284.013c-.041-.293-.076-.579-.133-.874l-6.194-.013a4.348,4.348,0,0,1,.061.675" transform="translate(-74.669 -72.934)" fill="#018837"/>
        <path id="Path_30135" data-name="Path 30135" d="M93.421,94a4.877,4.877,0,0,0-.368.871l-2.9-.005q.252-.423.5-.871Z" transform="translate(-73.112 -72.716)" fill="#018837"/>
        <path id="Path_30136" data-name="Path 30136" d="M103.373,94.894l6.208.012c-.071-.3-.145-.586-.233-.873l-6.336-.013a4.807,4.807,0,0,1,.36.874" transform="translate(-74.599 -72.719)" fill="#018837"/>
        <path id="Path_30137" data-name="Path 30137" d="M102.3,93.029l6.59.014c-.114-.3-.25-.59-.381-.866l-7.126-.016a4.717,4.717,0,0,1,.917.868" transform="translate(-74.41 -72.504)" fill="#018837"/>
        <path id="Path_30138" data-name="Path 30138" d="M94.99,92.148a4.908,4.908,0,0,0-.926.866l-2.879-.007c.145-.283.287-.573.425-.867Z" transform="translate(-73.231 -72.502)" fill="#018837"/>
        <path id="Path_30139" data-name="Path 30139" d="M101.222,82.651a5.862,5.862,0,0,1-1.276,2.962,7.137,7.137,0,0,1-.8.866c-.16.148-.321.286-.479.405-.173.134-.348.256-.516.363h0a3.16,3.16,0,0,1-2.219.581,2.3,2.3,0,0,1-1.16-.586c-.054-.049-.1-.1-.137-.137.21-.127.555-.348.957-.633a13.037,13.037,0,0,0,1.08-.863,8.192,8.192,0,0,0,.772-.776,5.57,5.57,0,0,0,.537-.71,3.224,3.224,0,0,0,.5-1.307l.012-.263a2.346,2.346,0,0,0-.863-1.789,1.5,1.5,0,0,0-1.51-.322c-1.281.337-2.79,1.855-4.015,3.509-.215.287-.419.581-.611.871-.174.26-.34.519-.491.773-.181.3-.344.589-.492.867s-.268.529-.374.77c-.1.223-.179.432-.239.619-.028.086-.054.169-.085.255-.088.262-.181.521-.28.777-.115.294-.233.585-.361.869-.111.264-.231.524-.355.778-.138.293-.284.583-.432.866-.137.263-.277.522-.419.773q-.249.448-.507.872c-.16.264-.318.521-.479.77-.194.3-.389.593-.578.874s-.365.529-.539.77c-.226.314-.443.6-.646.871-.224.291-.428.549-.612.778-.322.394-.573.687-.726.86-.106.119-.166.184-.172.189l-.119.122.1.143c.023.034.1.148.233.324.155.21.381.514.667.872.186.238.4.5.635.777s.487.571.76.868c.236.26.485.522.744.781.3.3.608.592.923.869h0l0,0a11.865,11.865,0,0,0,.982.784,7.137,7.137,0,0,0,1.532.872H90.2a3.064,3.064,0,0,0,1.507.254,4.217,4.217,0,0,0,1.017-.249h.023a4.2,4.2,0,0,0,1.39-.867,4.926,4.926,0,0,0,.687-.781,6.137,6.137,0,0,0,.519-.867,6.632,6.632,0,0,0,.329-.777c.04-.11.07-.2.09-.272l2.643.005c-.05.078-.11.168-.18.272-.145.215-.332.477-.557.776-.2.266-.436.56-.7.868-.216.251-.452.514-.706.78-.272.286-.569.579-.887.867-.283.259-.584.516-.906.768a14.391,14.391,0,0,1-1.2.876h-.037a12.72,12.72,0,0,1-1.411.765h-.005a10.242,10.242,0,0,1-2.809.859l-.157.024c-3.953.529-8.531-5.426-8.579-5.49l-.114-.151-.153.1a38.835,38.835,0,0,1-4.65,2.842c-1.271.573-3.048.765-3.987.163a.853.853,0,0,1-.424-.565,3.048,3.048,0,0,1,.753-2.513c2.016-2.507,7.438-2.987,7.5-2.987l.118-.015.039-.127c.021-.047,1.012-2.79,2.583-6.1.138-.288.278-.578.423-.874.127-.257.257-.514.389-.773.145-.288.3-.576.451-.867q.207-.389.421-.778c.16-.29.324-.581.493-.868.15-.259.3-.519.459-.776.181-.3.363-.589.55-.874a25.8,25.8,0,0,1,1.867-2.565c3.244-3.857,7.445-6.437,10.474-6.443a3.339,3.339,0,0,1,2.687,1.113,4.3,4.3,0,0,1,1.069,3.325" transform="translate(-70.884 -70.891)" fill="#ff0001"/>
        <path id="Path_30140" data-name="Path 30140" d="M94.655,95.181a3.673,3.673,0,0,1,3.551-2.846,3.524,3.524,0,0,1,1.7.434c.289.149.062.6-.22.442a3.1,3.1,0,0,0-1.475-.378,3.182,3.182,0,0,0-3.073,2.473.247.247,0,1,1-.478-.125m-.111,1.267.035-.532a.244.244,0,1,1,.483.069l-.03.463a.244.244,0,1,1-.487,0" transform="translate(-73.619 -72.524)" fill="#ff0001"/>
        <path id="Path_30141" data-name="Path 30141" d="M101.827,97.718a3.7,3.7,0,0,1-3.441,2.43,3.415,3.415,0,0,1-.981-.127.254.254,0,0,1,.136-.489,2.958,2.958,0,0,0,.845.116,3.183,3.183,0,0,0,2.976-2.111.25.25,0,0,1,.465.181m.228-1.306a3.612,3.612,0,0,1-.074.721.247.247,0,1,1-.483-.1,4.267,4.267,0,0,0,.06-.62.249.249,0,1,1,.5,0" transform="translate(-73.93 -72.966)" fill="#ff0001"/>
        <path id="Path_30142" data-name="Path 30142" d="M140.319,116.523l-.683,4.267a.335.335,0,0,1-.382.322h-.265a.373.373,0,0,1-.351-.315l-.6-2.336c-.013-.057-.018-.057-.037-.057h-.013c-.018,0-.025,0-.036.057l-.609,2.336a.374.374,0,0,1-.351.315h-.258a.335.335,0,0,1-.382-.322l-.683-4.267V116.5a.1.1,0,0,1,.1-.107h.358c.049,0,.092.037.1.107l.6,4.02c.011.063.006.1.031.1s.03-.037.043-.1l.6-2.335c.042-.169.128-.251.289-.251h.393c.161,0,.247.082.29.251l.6,2.335c.014.058.018.1.044.1s.018-.032.031-.1l.6-4.02c.013-.07.056-.107.106-.107h.356a.1.1,0,0,1,.105.107Z" transform="translate(-78.375 -73.802)"/>
        <path id="Path_30143" data-name="Path 30143" d="M145.633,121.062h-.295a.126.126,0,0,1-.124-.127v-2.076c0-.629-.257-.826-.657-.826a2.347,2.347,0,0,0-.848.176v2.726a.129.129,0,0,1-.123.127h-.3a.123.123,0,0,1-.117-.127v-4.492a.121.121,0,0,1,.117-.127h.306a.122.122,0,0,1,.118.127v1.3a2.505,2.505,0,0,1,.94-.195c.652,0,1.107.384,1.107,1.311v2.076a.124.124,0,0,1-.122.127" transform="translate(-80.585 -73.778)"/>
        <path id="Path_30144" data-name="Path 30144" d="M150.475,120.017h-2.06v.089c0,.751.29,1.028.855,1.028a8.307,8.307,0,0,0,1.1-.068h.031a.087.087,0,0,1,.1.088v.214c0,.081-.025.126-.123.146a5.579,5.579,0,0,1-1.1.106c-.707,0-1.4-.341-1.4-1.515v-.567a1.307,1.307,0,0,1,1.365-1.477,1.293,1.293,0,0,1,1.353,1.477v.339c0,.083-.043.139-.118.139m-.429-.478c0-.713-.264-.991-.805-.991s-.825.308-.825.991v.058h1.631Z" transform="translate(-81.972 -74.292)"/>
        <path id="Path_30145" data-name="Path 30145" d="M154.173,118.541a1.552,1.552,0,0,0-.848.264v2.645a.128.128,0,0,1-.122.127h-.3a.123.123,0,0,1-.118-.127v-3.218a.12.12,0,0,1,.118-.126h.287a.119.119,0,0,1,.118.126v.133a1.445,1.445,0,0,1,.867-.3q.129,0,.129.112v.26c0,.07-.043.107-.129.107" transform="translate(-83.419 -74.292)"/>
        <path id="Path_30146" data-name="Path 30146" d="M158.006,120.017h-2.061v.089c0,.751.291,1.028.855,1.028a8.3,8.3,0,0,0,1.095-.068h.032a.087.087,0,0,1,.1.088v.214c0,.081-.025.126-.122.146a5.585,5.585,0,0,1-1.1.106c-.708,0-1.4-.341-1.4-1.515v-.567a1.307,1.307,0,0,1,1.366-1.477,1.292,1.292,0,0,1,1.352,1.477v.339c0,.083-.042.139-.117.139m-.43-.478c0-.713-.265-.991-.805-.991s-.826.308-.826.991v.058h1.631Z" transform="translate(-84.192 -74.292)"/>
        <path id="Path_30147" data-name="Path 30147" d="M164.046,121.275a2.7,2.7,0,0,1-.4.032c-.566,0-.837-.15-.837-.846v-2.2l-.6-.07c-.068-.007-.118-.044-.118-.113V117.9a.11.11,0,0,1,.118-.112h.6v-.619a.128.128,0,0,1,.111-.126l.321-.05h.018a.1.1,0,0,1,.093.107v.689h.662a.126.126,0,0,1,.125.126v.214a.126.126,0,0,1-.125.128h-.662v2.2c0,.348.085.4.33.4h.346c.086,0,.128.025.128.089v.22c0,.056-.032.1-.111.107" transform="translate(-86.164 -73.979)"/>
        <path id="Path_30148" data-name="Path 30148" d="M168.3,121.062h-.294a.126.126,0,0,1-.124-.127v-2.076c0-.629-.258-.826-.657-.826a2.354,2.354,0,0,0-.849.176v2.726a.128.128,0,0,1-.122.127h-.3a.123.123,0,0,1-.117-.127v-4.492a.121.121,0,0,1,.117-.127h.305a.121.121,0,0,1,.118.127v1.3a2.511,2.511,0,0,1,.941-.195c.652,0,1.107.384,1.107,1.311v2.076a.124.124,0,0,1-.123.127" transform="translate(-87.267 -73.778)"/>
        <path id="Path_30149" data-name="Path 30149" d="M173.145,120.017h-2.06v.089c0,.751.29,1.028.855,1.028a8.288,8.288,0,0,0,1.095-.068h.032a.087.087,0,0,1,.1.088v.214c0,.081-.025.126-.123.146a5.579,5.579,0,0,1-1.1.106c-.708,0-1.4-.341-1.4-1.515v-.567a1.307,1.307,0,0,1,1.364-1.477,1.293,1.293,0,0,1,1.354,1.477v.339c0,.083-.043.139-.118.139m-.429-.478c0-.713-.264-.991-.807-.991s-.824.308-.824.991v.058h1.631Z" transform="translate(-88.654 -74.292)"/>
        <path id="Path_30150" data-name="Path 30150" d="M181.718,118.277l-.6,2.927c-.079.4-.147.436-.516.436-.321,0-.406-.056-.5-.453l-.536-2.147c-.011-.044-.011-.044-.032-.044s-.018,0-.03.044l-.535,2.147c-.091.365-.183.453-.5.453-.369,0-.437-.044-.516-.436l-.6-2.927v-.025a.124.124,0,0,1,.118-.126h.331a.116.116,0,0,1,.105.1l.511,2.878c.011.076.03.076.048.076s.037-.02.049-.076l.6-2.423a.222.222,0,0,1,.245-.188h.345a.222.222,0,0,1,.245.188l.6,2.423c.011.056.03.076.049.076s.037,0,.048-.076l.511-2.878a.114.114,0,0,1,.1-.1h.333a.124.124,0,0,1,.117.126Z" transform="translate(-90.66 -74.311)"/>
        <path id="Path_30151" data-name="Path 30151" d="M185.539,121.621c-.9,0-1.365-.612-1.365-1.539v-.48c0-.928.461-1.539,1.365-1.539s1.371.611,1.371,1.539v.48c0,.927-.468,1.539-1.371,1.539m.83-2.019c0-.643-.252-1.054-.83-1.054s-.825.4-.825,1.054v.48c0,.643.247,1.052.825,1.052s.83-.4.83-1.052Z" transform="translate(-92.671 -74.292)"/>
        <path id="Path_30152" data-name="Path 30152" d="M190.482,118.541a1.551,1.551,0,0,0-.848.264v2.645a.128.128,0,0,1-.123.127h-.3a.123.123,0,0,1-.117-.127v-3.218a.12.12,0,0,1,.117-.126h.288a.12.12,0,0,1,.118.126v.133a1.446,1.446,0,0,1,.867-.3c.085,0,.129.037.129.112v.26c0,.07-.044.107-.129.107" transform="translate(-94.121 -74.292)"/>
        <path id="Path_30153" data-name="Path 30153" d="M192.6,121.062h-.32a.119.119,0,0,1-.111-.127v-4.5a.113.113,0,0,1,.111-.12h.32a.113.113,0,0,1,.111.12v4.5a.119.119,0,0,1-.111.127" transform="translate(-95.027 -73.778)"/>
        <path id="Path_30154" data-name="Path 30154" d="M196.526,121a5.845,5.845,0,0,1-1.131.106c-.915,0-1.341-.612-1.341-1.559v-.453c0-.991.444-1.545,1.341-1.545a4.422,4.422,0,0,1,.72.062v-1.174a.118.118,0,0,1,.116-.121h.314a.115.115,0,0,1,.111.121v4.418c0,.082-.019.125-.13.146m-.411-2.922a4.7,4.7,0,0,0-.72-.044c-.6,0-.8.385-.8,1.06v.453c0,.689.19,1.073.8,1.073.209,0,.51-.017.72-.037Z" transform="translate(-95.583 -73.777)"/>
        <path id="Path_30155" data-name="Path 30155" d="M203.018,121.552a4.391,4.391,0,0,1-.769.07c-.836,0-1.31-.606-1.31-1.532V119.6c0-.93.468-1.534,1.31-1.534a4.474,4.474,0,0,1,.769.068c.1.02.123.051.123.139v.227a.094.094,0,0,1-.1.1h-.025a6.067,6.067,0,0,0-.762-.044c-.491,0-.769.334-.769,1.049v.492c0,.706.271,1.045.769,1.045a5.7,5.7,0,0,0,.762-.044h.025a.1.1,0,0,1,.1.094v.228c0,.081-.025.121-.123.139" transform="translate(-97.613 -74.293)"/>
        <path id="Path_30156" data-name="Path 30156" d="M205.937,121.621c-.9,0-1.365-.612-1.365-1.539v-.48c0-.928.461-1.539,1.365-1.539s1.372.611,1.372,1.539v.48c0,.927-.468,1.539-1.372,1.539m.831-2.019c0-.643-.253-1.054-.831-1.054s-.824.4-.824,1.054v.48c0,.643.246,1.052.824,1.052s.831-.4.831-1.052Z" transform="translate(-98.683 -74.292)"/>
        <path id="Path_30157" data-name="Path 30157" d="M213.437,121.574h-.294a.126.126,0,0,1-.124-.127v-2.233c0-.53-.24-.676-.559-.676a2.1,2.1,0,0,0-.719.17,1.986,1.986,0,0,1,.054.494v2.245a.119.119,0,0,1-.111.127h-.326a.115.115,0,0,1-.1-.127V119.2c0-.55-.154-.664-.473-.664a1.808,1.808,0,0,0-.75.248v2.662a.119.119,0,0,1-.111.127h-.327a.115.115,0,0,1-.1-.127v-3.218a.12.12,0,0,1,.118-.126h.306a.12.12,0,0,1,.118.126v.119a1.716,1.716,0,0,1,.9-.3.738.738,0,0,1,.615.258,2.436,2.436,0,0,1,1.021-.258c.554,0,1,.285,1,1.161v2.233a.125.125,0,0,1-.124.127" transform="translate(-100.133 -74.29)"/>
        <path id="Path_30158" data-name="Path 30158" d="M218.907,120.017h-2.06v.089c0,.751.29,1.028.855,1.028a8.289,8.289,0,0,0,1.095-.068h.032a.087.087,0,0,1,.1.088v.214c0,.081-.025.126-.123.146a5.579,5.579,0,0,1-1.1.106c-.708,0-1.4-.341-1.4-1.515v-.567a1.307,1.307,0,0,1,1.364-1.477,1.293,1.293,0,0,1,1.355,1.477v.339c0,.083-.043.139-.118.139m-.429-.478c0-.713-.265-.991-.808-.991-.528,0-.823.308-.823.991v.058h1.631Z" transform="translate(-102.142 -74.292)"/>
        <path id="Path_30159" data-name="Path 30159" d="M222.16,121.622a4.585,4.585,0,0,1-.973-.1c-.079-.018-.129-.056-.129-.125v-.223a.1.1,0,0,1,.111-.093h.025c.294.037.744.069.966.069.4,0,.609-.108.609-.448,0-.19-.111-.309-.461-.525l-.622-.378a1.077,1.077,0,0,1-.627-.9c0-.655.48-.838,1.114-.838a5.667,5.667,0,0,1,.959.081c.081.014.118.058.118.126v.208a.1.1,0,0,1-.1.107h-.02c-.215-.018-.609-.051-.952-.051s-.573.044-.573.367c0,.19.142.309.425.48l.609.372c.511.309.676.58.676.953,0,.643-.461.915-1.149.915" transform="translate(-103.542 -74.293)"/>
        <path id="Path_30160" data-name="Path 30160" d="M229.019,121.275a2.7,2.7,0,0,1-.4.032c-.566,0-.836-.15-.836-.846v-2.2l-.6-.07a.114.114,0,0,1-.117-.113V117.9a.11.11,0,0,1,.117-.112h.6v-.619a.128.128,0,0,1,.111-.126l.32-.05h.019a.1.1,0,0,1,.092.107v.689h.663a.125.125,0,0,1,.124.126v.214a.125.125,0,0,1-.124.128h-.663v2.2c0,.348.086.4.33.4H229c.086,0,.129.025.129.089v.22c0,.056-.032.1-.111.107" transform="translate(-105.314 -73.979)"/>
        <path id="Path_30161" data-name="Path 30161" d="M231.883,121.621c-.9,0-1.363-.612-1.363-1.539v-.48c0-.928.461-1.539,1.363-1.539s1.373.611,1.373,1.539v.48c0,.927-.468,1.539-1.373,1.539m.832-2.019c0-.643-.253-1.054-.832-1.054s-.823.4-.823,1.054v.48c0,.643.246,1.052.823,1.052s.832-.4.832-1.052Z" transform="translate(-106.331 -74.292)"/>
        <path id="Path_30162" data-name="Path 30162" d="M238.54,121.622a4.581,4.581,0,0,1-.973-.1c-.079-.018-.129-.056-.129-.125v-.223a.1.1,0,0,1,.111-.093h.025c.295.037.745.069.966.069.4,0,.608-.108.608-.448,0-.19-.111-.309-.461-.525l-.622-.378a1.076,1.076,0,0,1-.626-.9c0-.655.48-.838,1.113-.838a5.67,5.67,0,0,1,.959.081.121.121,0,0,1,.117.126v.208a.094.094,0,0,1-.1.107h-.02c-.214-.018-.608-.051-.952-.051s-.573.044-.573.367c0,.19.143.309.425.48l.609.372c.511.309.676.58.676.953,0,.643-.461.915-1.149.915" transform="translate(-108.37 -74.293)"/>
        <path id="Path_30163" data-name="Path 30163" d="M244.131,121.062h-.294a.126.126,0,0,1-.125-.127v-2.076c0-.629-.257-.826-.657-.826a2.35,2.35,0,0,0-.848.176v2.726a.129.129,0,0,1-.122.127h-.3a.123.123,0,0,1-.118-.127v-4.492a.121.121,0,0,1,.118-.127h.305a.122.122,0,0,1,.118.127v1.3a2.5,2.5,0,0,1,.94-.195c.652,0,1.107.384,1.107,1.311v2.076a.125.125,0,0,1-.123.127" transform="translate(-109.615 -73.778)"/>
        <path id="Path_30164" data-name="Path 30164" d="M247.741,121.621c-.9,0-1.365-.612-1.365-1.539v-.48c0-.928.461-1.539,1.365-1.539s1.371.611,1.371,1.539v.48c0,.927-.468,1.539-1.371,1.539m.83-2.019c0-.643-.253-1.054-.83-1.054s-.825.4-.825,1.054v.48c0,.643.246,1.052.825,1.052s.83-.4.83-1.052Z" transform="translate(-111.004 -74.292)"/>
        <path id="Path_30165" data-name="Path 30165" d="M252.554,121.622a4.4,4.4,0,0,1-.719-.07v1.143a.12.12,0,0,1-.118.121H251.4a.114.114,0,0,1-.111-.121v-4.343c0-.082.018-.118.13-.144a4.967,4.967,0,0,1,1.131-.145c.916,0,1.341.611,1.341,1.558v.455c0,.991-.443,1.546-1.341,1.546m.8-2c0-.661-.192-1.091-.8-1.091a4.577,4.577,0,0,0-.719.063v2.5a4.561,4.561,0,0,0,.719.064c.6,0,.8-.4.8-1.079Z" transform="translate(-112.454 -74.293)"/>
        <path id="Path_30166" data-name="Path 30166" d="M181.431,103.062c1.88.672,6.226-2.389,7.078-3.007l.127-.09.478-1.95-.8.326c-.732.3-1.725.463-1.93.237-.088-.09-.12-.482.35-1.349l7.748-13.477.239-.356c.226-.307.458-.612.246-.945s-.644-.293-1.079-.222l-3.5.47-.11.178c-.063.1-6.23,9.929-9.97,12.845a5.86,5.86,0,0,1-2,1.224,6.353,6.353,0,0,1,1.215-2.53l4.509-7.208.567-.949a7.811,7.811,0,0,0,.99-3.178,1.511,1.511,0,0,0-.379-1.118c-.819-.779-2.361.111-2.873.408,0,.006-4.572,2.719-4.572,2.719l.054,1.974.552-.078s.67-.093.745-.1a5.4,5.4,0,0,1-.712,1.456l-.244.4-.1.192c-2.78,4.817-5.932,10.776-5.932,13.06a1.589,1.589,0,0,0,.076.5,1.013,1.013,0,0,0,.517.563c2.119.838,6.439-2.945,8.8-5.249a12,12,0,0,0-.923,3.728,2.274,2.274,0,0,0,.145.864,1.271,1.271,0,0,0,.688.662" transform="translate(-82.591 -71.289)" fill="#179b31"/>
        <path id="Path_30167" data-name="Path 30167" d="M238.358,103.041c1.882.678,6.225-2.386,7.071-3l.125-.092.491-1.94-.8.319c-.738.29-1.72.456-1.927.236-.093-.094-.121-.479.352-1.35L251.4,83.735l.254-.354c.221-.3.457-.617.244-.951-.206-.318-.651-.291-1.082-.22l-3.5.47-.118.182c-.06.094-6.229,9.925-9.968,12.841a5.869,5.869,0,0,1-2,1.226,6.489,6.489,0,0,1,1.22-2.537l4.509-7.2.569-.942a7.9,7.9,0,0,0,.984-3.18,1.512,1.512,0,0,0-.382-1.121c-.813-.777-2.356.119-2.864.411-.011,0-4.576,2.717-4.576,2.717l.052,1.975.561-.076s.662-.1.73-.106a5.119,5.119,0,0,1-.714,1.462l-.234.4-.111.2c-2.774,4.807-5.926,10.775-5.926,13.059a1.5,1.5,0,0,0,.074.5,1.037,1.037,0,0,0,.518.56c2.123.84,6.438-2.949,8.8-5.25a11.827,11.827,0,0,0-.92,3.729,2.2,2.2,0,0,0,.141.858,1.211,1.211,0,0,0,.688.663" transform="translate(-89.173 -71.287)" fill="#179b31"/>
        <path id="Path_30168" data-name="Path 30168" d="M219.877,80.589s7.081-3.785,3.665-6.828c-2.3-2.053-7.563,4.811-8.579,7.817-2.1,6.252-7.208,11.575-7.208,11.575s5.418,7.43,9.087,7.017,4.553-4.252,4.553-4.252h3.665s-4.275,7.161-11.465,8.107c-4.768.623-10.168-6.183-10.168-6.183A40.437,40.437,0,0,1,198,101.205a6.244,6.244,0,0,1-4.492.206,1.507,1.507,0,0,1-.915-1.021,2.954,2.954,0,0,1,.033-1.189c1.215-4.764,9.7-5.185,9.7-5.185S206.205,83.544,211.2,77.8c5.426-6.235,12.785-9.168,15.595-5.966s.681,6.979-1.734,8.756c-3.445,2.555-5.182,0-5.182,0" transform="translate(-84.953 -70.002)" fill="#179b31"/>
        <path id="Path_30169" data-name="Path 30169" d="M163.024,80.549s7.1-3.791,3.668-6.829c-2.3-2.053-7.575,4.814-8.59,7.818-2.1,6.259-7.219,11.588-7.219,11.588s5.434,7.437,9.106,7.029,4.549-4.261,4.549-4.261h3.674s-4.279,7.166-11.479,8.115c-4.768.625-10.183-6.192-10.183-6.192a40.384,40.384,0,0,1-5.431,3.374,6.205,6.205,0,0,1-4.5.2,1.525,1.525,0,0,1-.91-1.016,2.968,2.968,0,0,1,.036-1.192c1.21-4.773,9.7-5.2,9.7-5.2s3.886-10.479,8.885-16.223c5.428-6.24,12.8-9.174,15.608-5.977s.676,6.983-1.734,8.76c-3.449,2.553-5.189,0-5.189,0" transform="translate(-78.375 -69.998)" fill="#179b31"/>
      </g>
      <g id="Group_12049" data-name="Group 12049" transform="translate(218.406 413.61)">
        <path id="Path_30198" data-name="Path 30198" d="M378.771,332.992c.38.048.76.092,1.138.147.139.02.159.059.135.2-.03.178-.061.356-.1.533s-.061.193-.246.181c-.383-.025-.766-.046-1.149-.065a.613.613,0,0,0-.185.023.213.213,0,0,0-.161.178.187.187,0,0,0,.1.2c.261.16.531.307.785.478a1.677,1.677,0,0,1,.438.379,1.163,1.163,0,0,1,.06,1.173,1.379,1.379,0,0,1-1.012.8,3.577,3.577,0,0,1-1.8-.049.123.123,0,0,1-.1-.163c.038-.2.07-.391.1-.587.023-.133.073-.161.2-.15.367.031.735.061,1.1.076.229.009.367-.1.379-.3a.283.283,0,0,0-.078-.2,2.83,2.83,0,0,0-.341-.245q-.239-.161-.481-.317a1.128,1.128,0,0,1-.516-1.165,1.107,1.107,0,0,1,.76-.962,2.493,2.493,0,0,1,.957-.14Z" transform="translate(-376.67 -332.812)" fill="#179c48" stroke="#fff" stroke-width="0.5"/>
        <path id="Path_30199" data-name="Path 30199" d="M695.178,358.468a1.369,1.369,0,0,1-.141,0c-.24-.026-.342-.154-.373-.428-.068-.589-.144-1.177-.215-1.765-.034-.282-.063-.564-.1-.845-.014-.108.039-.154.135-.155.288,0,.576,0,.864,0,.094,0,.114.07.118.144.017.291.031.582.045.873.016.336.031.671.047,1.006a.178.178,0,0,0,.015.075.131.131,0,0,0,.063.063c.014,0,.05-.028.06-.05.042-.094.078-.191.116-.287q.326-.828.653-1.656c.058-.147.09-.169.246-.169.258,0,.517,0,.776,0,.153,0,.179.042.116.179l-1.6,3.442a1.3,1.3,0,0,1-1.2.8,3.191,3.191,0,0,1-.889-.073c-.17-.039-.175-.054-.145-.226.023-.131.049-.261.068-.392a.151.151,0,0,1,.182-.146l.641.04A.435.435,0,0,0,695.178,358.468Z" transform="translate(-679.697 -354.103)" fill="#179c48" stroke="#fff" stroke-width="0.5"/>
        <path id="Path_30200" data-name="Path 30200" d="M457.115,357.285l-.155.1a1.156,1.156,0,0,1-1.03.183.9.9,0,0,1-.647-.865,3.716,3.716,0,0,1,.289-1.64,1.351,1.351,0,0,1,1.186-.8,5.367,5.367,0,0,1,1.6.119c.161.029.18.068.151.23q-.242,1.381-.483,2.762c-.03.172-.058.2-.229.2h-.51c-.17,0-.184-.015-.176-.184C457.116,357.362,457.115,357.334,457.115,357.285Zm.234-2.141c-.109-.01-.2-.024-.284-.026a.487.487,0,0,0-.588.449c-.04.168-.069.339-.1.51a2.774,2.774,0,0,0-.053.393c0,.178.085.273.257.254a2.276,2.276,0,0,0,.454-.12.16.16,0,0,0,.074-.109c.048-.238.089-.478.131-.717C457.278,355.572,457.312,355.365,457.349,355.144Z" transform="translate(-451.793 -353.12)" fill="#179c48" stroke="#fff" stroke-width="0.5"/>
        <path id="Path_30201" data-name="Path 30201" d="M522.533,330.883c-.116-.018-.22-.035-.325-.05s-.152-.052-.134-.167c.022-.146.052-.29.076-.435a.147.147,0,0,1,.161-.134c.092,0,.185,0,.277,0,.067,0,.094-.018.109-.089a3.593,3.593,0,0,1,.14-.51.845.845,0,0,1,.751-.553,2.391,2.391,0,0,1,.792.036c.092.02.1.066.092.14-.027.156-.059.311-.084.467a.121.121,0,0,1-.136.114c-.081,0-.162,0-.244,0a.18.18,0,0,0-.2.15c-.018.074-.033.149-.054.244.139,0,.259,0,.38,0,.137,0,.157.028.133.158-.028.148-.054.3-.079.446s-.048.178-.207.178a1.606,1.606,0,0,1-.221,0c-.117-.016-.151.041-.169.144-.139.8-.278,1.6-.425,2.4a2.193,2.193,0,0,1-.145.462.827.827,0,0,1-.719.5,2.368,2.368,0,0,1-.727-.022c-.153-.028-.169-.045-.143-.2.021-.135.048-.268.067-.4a.14.14,0,0,1,.159-.133h.2c.158,0,.21-.04.241-.2.055-.278.1-.557.152-.836q.142-.81.281-1.621C522.53,330.944,522.53,330.922,522.533,330.883Z" transform="translate(-514.998 -328.927)" fill="#179c48" stroke="#fff" stroke-width="0.5"/>
        <path id="Path_30202" data-name="Path 30202" d="M588.142,356.237c-.27,0-.539,0-.809,0-.091,0-.123.028-.124.12-.007.3.091.41.387.406.373-.006.745-.025,1.117-.042.133-.006.158.012.139.149a4.176,4.176,0,0,1-.078.434.215.215,0,0,1-.1.141,3.152,3.152,0,0,1-1.6.147,1.119,1.119,0,0,1-.89-1.343,6,6,0,0,1,.2-.948,1.444,1.444,0,0,1,1.324-1.025,1.8,1.8,0,0,1,.766.05,1.053,1.053,0,0,1,.731,1.018,6.892,6.892,0,0,1-.069.746.156.156,0,0,1-.182.149C588.681,356.235,588.412,356.237,588.142,356.237Zm-.841-.583c.08.006.124.012.166.012h.52c.215,0,.215,0,.232-.217a.307.307,0,0,0-.208-.349.448.448,0,0,0-.544.181A3.231,3.231,0,0,0,587.3,355.654Z" transform="translate(-576.872 -353.134)" fill="#179c48" stroke="#fff" stroke-width="0.5"/>
        <path id="Path_30203" data-name="Path 30203" d="M660.864,335.208c-.133,0-.266,0-.4,0-.084,0-.14-.026-.121-.135q.315-1.766.626-3.533c.032-.181.067-.362.092-.544a.155.155,0,0,1,.165-.156c.266,0,.532,0,.8,0,.11,0,.124.072.109.159-.062.348-.125.7-.186,1.043q-.206,1.168-.411,2.338c-.039.221-.076.442-.117.663-.026.141-.059.165-.2.166Z" transform="translate(-647.76 -330.753)" fill="#179c48" stroke="#fff" stroke-width="0.5"/>
        <path id="Path_30204" data-name="Path 30204" d="M787.455,330.817c.122,0,.244,0,.366,0,.146,0,.177.041.144.185-.081.359-.164.717-.246,1.076q-.173.759-.346,1.518c-.046.2-.064.218-.273.218-.144,0-.288,0-.432,0-.1,0-.137-.04-.126-.134.034-.281.067-.563.1-.844.055-.442.112-.884.168-1.326.023-.186.044-.373.069-.559.013-.1.087-.132.176-.134.133,0,.266,0,.4,0Z" transform="translate(-768.363 -330.732)" fill="#179c48" stroke="#fff" stroke-width="0.5"/>
        <path id="Path_30205" data-name="Path 30205" d="M779.113,408.032c-.118,0-.236,0-.354,0s-.145-.038-.128-.141c.04-.239.086-.477.126-.716a.142.142,0,0,1,.159-.133c.254,0,.509,0,.763,0,.1,0,.122.053.107.136-.041.235-.087.469-.125.7a.161.161,0,0,1-.183.15Z" transform="translate(-760.801 -403.578)" fill="#179c48" stroke="#fff" stroke-width="0.5"/>
      </g>
      <path id="Path_30206" data-name="Path 30206" d="M-.226.575.155-.9h-.61L-.707.575Z" transform="translate(216.778 417.737)" fill="#222"/>
    </g>
    <rect id="Rectangle_93044" data-name="Rectangle 93044" width="8" height="63" transform="translate(-13650 -9615.5)" fill="#fff" opacity="0"/>
  </g>
</svg>
